<?xml version="1.0" encoding="UTF-8"?>
<svg width="609px" height="90px" viewBox="0 0 609 90" version="1.1" xmlns="http://www.w3.org/2000/svg" xmlns:xlink="http://www.w3.org/1999/xlink">
    <!-- Generator: Sketch 50.2 (55047) - http://www.bohemiancoding.com/sketch -->
    <title>Group 2</title>
    <desc>Created with Sketch.</desc>
    <defs>
        <polygon id="path-1" points="0.650416667 0.929484375 14.0591667 0.929484375 14.0591667 87.8287969 0.650416667 87.8287969"></polygon>
    </defs>
    <g id="Page-1" stroke="none" stroke-width="1" fill="none" fill-rule="evenodd">
        <g id="Marco-Wallet-v2" transform="translate(-1283.000000, -1924.000000)">
            <g id="Group-2" transform="translate(1283.000000, 1924.000000)">
                <path d="M435,76.5041372 C417.627124,76.5041372 403.489729,62.3834131 403.489729,45.0099864 C403.489729,27.6337064 417.627124,13.498716 435,13.498716 C452.375729,13.498716 466.498859,27.6337064 466.498859,45.0099864 C466.498859,62.3834131 452.375729,76.5041372 435,76.5041372 M435,0 C410.183236,0 390,20.1924357 390,45.0099864 C390,69.816124 410.183236,90 435,90 C459.813911,90 480,69.816124 480,45.0099864 C480,20.1924357 459.813911,0 435,0" id="Fill-1" fill="#2859BE"></path>
                <path d="M191.998573,0 C167.179743,0 147,20.1917956 147,45.0085595 C147,69.8167639 167.179743,90 191.998573,90 C197.151213,90 202.095578,89.0926959 206.694722,87.4863682 C207.057061,87.3636825 207.75321,87.0355694 207.75321,85.7373827 L207.75321,73.3889171 C207.75321,72.2619199 206.960057,72.6870403 206.566334,72.9038803 C202.203994,75.1892594 197.259629,76.5017119 191.998573,76.5017119 C174.629101,76.5017119 160.500713,62.3814355 160.500713,45.0085595 C160.500713,27.6356835 174.629101,13.4982881 191.998573,13.4982881 C209.36234,13.4982881 223.496434,27.6356835 223.496434,45.0085595 L223.496434,45.1169795 L223.496434,77.0894623 L223.496434,77.0780497 L223.496434,87.4692493 C223.496434,88.0997971 224.009986,88.5905402 224.629101,88.5905402 L235.864479,88.5905402 C236.506419,88.5905402 237,88.0997971 237,87.4692493 L237,45.0085595 C237,20.1917956 216.805991,0 191.998573,0" id="Fill-3" fill="#2859BE"></path>
                <path d="M535.491386,0 C514.264561,0 497,17.046794 497,37.9932369 L497,69.5050079 L497,86.8862194 C497,87.5012077 497.502461,88 498.125513,88 L509.449549,88 C510.089828,88 510.569319,87.5012077 510.569319,86.8862194 L510.569319,68.2438569 L510.569319,37.9932369 C510.569319,24.4351551 521.764151,13.4022093 535.491386,13.4022093 C549.244463,13.4022093 560.413454,24.4351551 560.413454,37.9932369 L560.413454,71.2621172 L560.413454,86.8862194 C560.413454,87.5012077 560.913043,88 561.533224,88 L572.860131,88 C573.486054,88 573.982773,87.5012077 573.982773,86.8862194 L573.982773,84.0918489 L573.982773,37.9932369 L574,37.9932369 C574,17.046794 556.71534,0 535.491386,0" id="Fill-5" fill="#2859BE"></path>
                <path d="M295.881032,0 C274.993624,0 258,17.046794 258,37.9932369 L258,84.0918489 L258,86.8862194 C258,87.5012077 258.497319,88 259.113317,88 L270.257789,88 C270.873786,88 271.36828,87.5012077 271.36828,86.8862194 L271.36828,71.2621172 L271.36828,37.9932369 C271.36828,24.4351551 282.365817,13.4022093 295.881032,13.4022093 C296.497029,13.4022093 297,12.9175872 297,12.2855947 L297,1.11944865 C297,0.495958262 296.497029,0 295.881032,0" id="Fill-7" fill="#2859BE"></path>
                <path d="M94.8577238,0 C83.1558743,0 72.2988719,5.56890277 65.4885444,14.9751055 C58.6839447,5.56890277 47.8298063,0 36.1308207,0 C16.2096104,0 0,16.0435413 0,35.7571737 L0,86.8862194 C0,87.5012077 0.495452757,88 1.11978051,88 L12.4149578,88 C13.0421494,88 13.5376022,87.5012077 13.5376022,86.8862194 L13.5376022,35.7571737 C13.5376022,23.4404045 23.6843601,13.4022093 36.1308207,13.4022093 C48.5830091,13.4022093 58.729767,23.4404045 58.729767,35.7571737 L58.729767,86.8862194 C58.729767,87.5012077 59.2280836,88 59.8524114,88 L71.1447248,88 C71.7719164,88 72.2645053,87.5012077 72.2645053,86.8862194 L72.2645053,35.7571737 C72.2645053,23.4404045 82.4055354,13.4022093 94.8577238,13.4022093 C107.304184,13.4022093 117.439487,23.4404045 117.439487,35.7571737 L117.439487,86.8862194 C117.439487,87.5012077 117.949259,88 118.579314,88 L129.863036,88 C130.501683,88 131,87.5012077 131,86.8862194 L131,35.7571737 C131,16.0435413 114.787526,0 94.8577238,0" id="Fill-9" fill="#2859BE"></path>
                <g id="Group-13" transform="translate(594.000000, 0.000000)">
                    <mask id="mask-2" fill="white">
                        <use xlink:href="#path-1"></use>
                    </mask>
                    <g id="Clip-12"></g>
                    <path d="M12.9329167,0.929484375 L1.77525,0.929484375 C1.15758333,0.929484375 0.650416667,1.44135938 0.650416667,2.05560938 L0.650416667,86.7112031 C0.650416667,87.3282969 1.15758333,87.8287969 1.77525,87.8287969 L12.9329167,87.8287969 C13.5675833,87.8287969 14.0605833,87.3282969 14.0605833,86.7112031 L14.0605833,2.05560938 C14.0605833,1.44135938 13.5675833,0.929484375 12.9329167,0.929484375" id="Fill-11" fill="#2859BE" mask="url(#mask-2)"></path>
                </g>
                <path d="M373.749119,68.0171184 C373.140993,67.4607703 372.450459,67.8059914 372.163446,68.0741797 C366.570969,73.3067047 359.068864,76.5049929 350.830758,76.5049929 C333.521925,76.5049929 319.452637,62.3708987 319.452637,45.0042796 C319.452637,27.6376605 333.521925,13.5035663 350.830758,13.5035663 C359.068864,13.5035663 366.570969,16.7075606 372.163446,21.9315264 C372.450459,22.1968616 373.140993,22.5392297 373.749119,21.9942939 C373.749119,21.9942939 380.961369,14.7475036 381.637695,14.0656205 C382.325388,13.3780314 381.876398,12.5905849 381.578019,12.296719 C373.550199,4.67617689 362.720457,0 350.830758,0 C326.105072,0 306,20.1940086 306,45.0042796 C306,69.8174037 326.105072,90 350.830758,90 C362.720457,90 373.550199,85.3295292 381.578019,77.7118402 C381.876398,77.4179743 382.325388,76.6276748 381.637695,75.9457917 C380.961369,75.2553495 373.749119,68.0171184 373.749119,68.0171184" id="Fill-14" fill="#2859BE"></path>
            </g>
        </g>
    </g>
</svg>